<svg xmlns="http://www.w3.org/2000/svg" width="29" height="29" viewBox="0 0 29 29">
  <g id="Group_81" data-name="Group 81" transform="translate(-927.574 -4824)">
    <circle id="Ellipse_7" data-name="Ellipse 7" cx="14.5" cy="14.5" r="14.5" transform="translate(927.574 4824)" fill="#fff"/>
    <g id="Group_80" data-name="Group 80" transform="translate(936.334 4832.334)">
      <rect id="Rectangle_48" data-name="Rectangle 48" width="12" height="12" transform="translate(0.24 -0.334)" fill="none"/>
    </g>
    <path id="Icon_ionic-ios-call" data-name="Icon ionic-ios-call" d="M16.369,14.08a10.274,10.274,0,0,0-2.146-1.436c-.643-.309-.879-.3-1.334.025-.379.274-.624.529-1.06.433A6.326,6.326,0,0,1,9.7,11.526,6.28,6.28,0,0,1,8.121,9.4c-.092-.439.162-.681.433-1.06.328-.455.338-.691.025-1.334A10.071,10.071,0,0,0,7.144,4.855c-.468-.468-.573-.366-.831-.274a4.729,4.729,0,0,0-.761.4,2.3,2.3,0,0,0-.914.965c-.182.392-.392,1.121.678,3.025a16.88,16.88,0,0,0,2.968,3.958h0l0,0,0,0h0a16.946,16.946,0,0,0,3.958,2.968c1.9,1.07,2.633.86,3.025.678a2.257,2.257,0,0,0,.965-.914,4.729,4.729,0,0,0,.4-.761C16.735,14.653,16.84,14.548,16.369,14.08Z" transform="translate(931.665 4827.424)" fill="#4e65ff"/>
  </g>
</svg>
