<svg xmlns="http://www.w3.org/2000/svg" xmlns:xlink="http://www.w3.org/1999/xlink" width="122" height="40" viewBox="0 0 122 40">
  <defs>
    <linearGradient id="linear-gradient" x1="0.5" x2="0.5" y2="1" gradientUnits="objectBoundingBox">
      <stop offset="0" stop-color="#55c4cc"/>
      <stop offset="1" stop-color="#34a5dd"/>
    </linearGradient>
  </defs>
  <g id="Group_78" data-name="Group 78" transform="translate(-1636 140)">
    <path id="Path_1" data-name="Path 1" d="M445.246,242.342v.01c.055.037.109.072.166.107C445.357,242.418,445.3,242.381,445.246,242.342Zm-4.166-7.057V233.11m0,2.174V233.11" transform="translate(1234.996 -354.313)" fill="none"/>
    <path id="Path_2" data-name="Path 2" d="M431.229,239.974c.215-.128.425-.268.628-.414v0C431.654,239.7,431.444,239.843,431.229,239.974Zm-.327.19c-.22.121-.445.238-.676.344C430.457,240.405,430.681,240.291,430.9,240.165Zm-.676.344c-.231.1-.465.2-.706.292C429.761,240.715,430,240.619,430.226,240.509Z" transform="translate(1229.919 -351.495)" fill="url(#linear-gradient)"/>
    <g id="Group_2" data-name="Group 2" transform="translate(1675.985 -130.018)">
      <path id="Path_3" data-name="Path 3" d="M471.776,227.066a9.964,9.964,0,0,0-9.964,9.965c0,.1,0,.21,0,.314,0,.045,0,.092,0,.138v7.657a2.082,2.082,0,1,0,4.164,0v-.007a9.964,9.964,0,1,0,5.8-18.067Zm0,15.762a5.8,5.8,0,1,1,5.8-5.8A5.8,5.8,0,0,1,471.776,242.828Z" transform="translate(-431.94 -226.936)" fill="#fff"/>
      <path id="Path_4" data-name="Path 4" d="M487.555,227.066a9.965,9.965,0,0,0-9.962,9.965c0,.1,0,.21.006.314,0,.045-.006.092-.006.138v7.657a2.083,2.083,0,0,0,4.166,0v-.007a9.964,9.964,0,1,0,5.8-18.067Zm0,15.762a5.8,5.8,0,1,1,5.8-5.8A5.8,5.8,0,0,1,487.555,242.828Z" transform="translate(-424.982 -226.936)" fill="#fff"/>
      <path id="Path_5" data-name="Path 5" d="M465.963,236.941a9.97,9.97,0,1,0-4.169,8.1v.007a2.084,2.084,0,0,0,4.169,0v-7.657c0-.048,0-.094-.006-.138C465.96,237.151,465.963,237.046,465.963,236.941Zm-9.965,5.8a5.8,5.8,0,1,1,5.8-5.8A5.8,5.8,0,0,1,456,242.739Z" transform="translate(-438.896 -226.976)" fill="#fff"/>
      <g id="Group_1" data-name="Group 1">
        <path id="Path_6" data-name="Path 6" d="M445.246,228.513v15.994a2.083,2.083,0,0,1-4.166-.006v-9.236a9.96,9.96,0,0,1,4.145-7.043A2.136,2.136,0,0,1,445.246,228.513Z" transform="translate(-441.08 -226.427)" fill="#fff"/>
        <path id="Path_7" data-name="Path 7" d="M445.136,228.394a9.977,9.977,0,0,0-1.461,1.187c-.081.078-.159.159-.232.238a9.9,9.9,0,0,0-2.363,4.109v-4.885a1.724,1.724,0,0,1,.01-.195,2.026,2.026,0,0,1,.075-.385h0a1.185,1.185,0,0,1,.055-.161,2.088,2.088,0,0,1,1.944-1.326,2.064,2.064,0,0,1,1.47.612,2.043,2.043,0,0,1,.5.785Z" transform="translate(-441.08 -226.976)" fill="#f6072f"/>
      </g>
    </g>
    <g id="Group_3" data-name="Group 3" transform="translate(1646.042 -129.756)">
      <path id="Path_8" data-name="Path 8" d="M440.129,237.438v-.056c0-.086,0-.171,0-.258a9.937,9.937,0,0,0-1.2-4.749c-.076-.141-.159-.28-.241-.416a10,10,0,0,0-.831-1.171c-.1-.124-.209-.245-.316-.362s-.218-.235-.328-.346a9.957,9.957,0,0,0-14.09,0c-.056.056-.111.114-.169.17-.108.117-.215.233-.321.354s-.206.242-.3.369c-.2.251-.382.513-.555.78-.088.137-.171.272-.251.412s-.156.28-.231.424a9.935,9.935,0,0,0-1.089,4.536c0,.1,0,.21.006.314v0c0,.045-.006.089-.006.137v7.655a2.083,2.083,0,1,0,4.166,0v-.007c.1.075.2.144.31.213s.193.127.291.186a.492.492,0,0,0,.055.032c.1.062.2.12.3.176l.094.052c.079.043.159.085.241.127.114.056.225.114.342.166.231.1.465.2.706.293.12.045.241.086.362.127.086.029.176.056.265.081.128.04.258.075.386.107.052.014.1.027.151.037.232.056.47.1.707.141.13.02.261.039.392.055.107.012.213.024.321.032l.11.01c.111.01.22.014.331.02h.068c.121.006.245.009.369.009s.245,0,.369-.009h.066c.111-.006.223-.01.331-.02l.092-.007c.114-.01.225-.02.339-.035.13-.016.261-.035.389-.055.11-.017.218-.037.324-.058.033-.007.065-.012.1-.019.105-.023.206-.045.31-.071.156-.036.31-.076.464-.122.105-.03.212-.062.317-.1.121-.04.242-.082.36-.127.241-.089.475-.189.706-.293s.455-.223.676-.344c.109-.062.219-.124.326-.187v0q.324-.2.63-.416v.007a2.084,2.084,0,1,0,4.167,0v-7.655C440.133,237.531,440.13,237.483,440.129,237.438Zm-9.959,5.483a5.8,5.8,0,1,1,5.8-5.8A5.772,5.772,0,0,1,430.169,242.921Z" transform="translate(-420.203 -227.159)" fill="#fff"/>
      <path id="Path_9" data-name="Path 9" d="M424.259,228.565a9.964,9.964,0,0,0-4.056,5.762v-5.086a2.086,2.086,0,0,1,3.559-1.473A2.055,2.055,0,0,1,424.259,228.565Z" transform="translate(-420.203 -227.159)" fill="#f6072f"/>
      <circle id="Ellipse_1" data-name="Ellipse 1" cx="1.026" cy="1.026" r="1.026" transform="translate(6.167 7.987)" fill="#fff"/>
      <circle id="Ellipse_2" data-name="Ellipse 2" cx="1.026" cy="1.026" r="1.026" transform="translate(11.376 7.987)" fill="#fff"/>
    </g>
    <rect id="Rectangle_4" data-name="Rectangle 4" width="19.926" height="20.095" transform="translate(1646.043 -129.926)" fill="none" opacity="0.2"/>
    <rect id="Rectangle_5" data-name="Rectangle 5" width="122" height="40" transform="translate(1636 -140)" fill="none" opacity="0.2"/>
    <rect id="Rectangle_6" data-name="Rectangle 6" width="72.539" height="20.095" transform="translate(1675.984 -129.922)" fill="none" opacity="0.2"/>
  </g>
</svg>
