<svg xmlns="http://www.w3.org/2000/svg" width="48" height="48" viewBox="0 0 48 48">
  <g id="Group_9" data-name="Group 9" transform="translate(-531.461 -263.82)">
    <path id="Path_6" data-name="Path 6" d="M555.462,263.82a24,24,0,1,0,24,24h0a24,24,0,0,0-24-24ZM570.1,292.613a14.272,14.272,0,0,1-.383,2.3,3.534,3.534,0,0,1-1.208,1.8,4.414,4.414,0,0,1-2.356.981c-1.411.181-2.83.252-4.249.313-1.174.049-2.347.056-3.522.087-1.056.029-2.113.011-3.17.013-1.137,0-2.275,0-3.413-.017-1.736-.026-3.471-.075-5.2-.2a15.187,15.187,0,0,1-2.3-.274,4.088,4.088,0,0,1-3.054-2.464,6.091,6.091,0,0,1-.32-1.443c-.166-1.077-.219-2.159-.284-3.247-.018-.309-.014-.617-.024-.927-.042-1.421-.029-2.842.024-4.262a27.7,27.7,0,0,1,.293-3.393,5.08,5.08,0,0,1,.543-1.872,4.206,4.206,0,0,1,2.069-1.746,6.272,6.272,0,0,1,1.771-.372c1.229-.13,2.461-.194,3.7-.244,1.2-.047,2.4-.056,3.593-.088.841-.022,1.681-.021,2.521-.024,1.564-.006,3.127.035,4.691.063,1.006.018,2.014.058,3.018.109,1.105.056,2.209.126,3.307.262a4.343,4.343,0,0,1,2.188.777,3.684,3.684,0,0,1,1.4,2.136,21.469,21.469,0,0,1,.476,3.556q.1,1.424.119,2.85A46.769,46.769,0,0,1,570.1,292.613Z" transform="translate(0)" fill="#4e65ff"/>
    <path id="Path_7" data-name="Path 7" d="M562.667,296.288V292c0-.07-.038-.162.039-.209s.139.04.2.075q2.369,1.458,4.736,2.921,1.111.684,2.224,1.363c.24.147.238.153,0,.3l-4.991,3.073-1.983,1.22c-.2.123-.221.112-.221-.122Z" transform="translate(-9.467 -8.486)" fill="#4e65ff"/>
  </g>
</svg>
